<?xml version="1.0" encoding="UTF-8"?>
<svg id="Layer_1" data-name="Layer 1" xmlns="http://www.w3.org/2000/svg" version="1.1" viewBox="0 0 16 16">
  <defs>
    <style>
      .cls-1 {
        fill: #ef3b3b;
      }

      .cls-1, .cls-2, .cls-3 {
        stroke-width: 0px;
      }

      .cls-2 {
        fill: #14223e;
      }

      .cls-3 {
        fill: #fff;
      }
    </style>
  </defs>
  <path class="cls-1" d="M7.06.22C6.04.09,5.29,0,5.18,0c-.37,0-3.27.92-3.4,1.1-.13.77.22,6.34.64,6.66.42.32,3.17.26,3.73.21,0,.07,0,.13-.01.21-.64.12-2.6.55-3.2,1.18-.41.43,2.46,1.8,3.2,2.03.01,0,.02,0,.03,0,.02.13.05.24.08.34.04.13.13.24.24.35-.18.49-.76,1.74-1.37,2.69-1.02.07-1.6.39-1.74.52-.15.15-.27.72-.27.72h3.92s.11-.52,0-.72c0,0-.14-.22-.56-.38.15-.43.55-1.6.6-2.48.67.27,1.6.36,2.34.19.28,1.84-.52,3.39-.52,3.39h4.23c-.02-.15-.3-.91-.52-1.1-.22-.19-2.14.08-2.14.08.05-.52-.26-2.06-.38-2.63.21-.13.36-.29.45-.49.11-.28.14-.63.11-1.02.43-.38,1.64-1.5,1.39-1.9-.25-.41-1.62-.85-2.22-.98-.09-.2-.15-.34-.17-.38,1.6-.19,3.04-.39,3.21-.51.38-.27.85-5.53.58-5.89-.12-.15-3.64-.64-6.04-.95M11.17,9.09c.09.1-.48.44-.77.6-.11-.39-.24-.77-.36-1.1.39.15,1.05.41,1.13.5ZM4.51,9.44s.64-.4,1.59-.65c-.02.36-.03.76-.03,1.16-1.12-.09-1.56-.5-1.56-.5Z"/>
  <path class="cls-2" d="M4.89,3.5c-.81.04-3.74,1-4.06,1.35-.32.35-.19,1.04-.04,1.1.09.04.71-.2.79-.27.09-.07.18-.36.35-.54.54-.31,2.55-1.03,3.12-1.12.57-.08.65-.55-.16-.52Z"/>
  <path class="cls-3" d="M4.03,2.64s.71,2.9,1.29,3.07c.58.17,2.76.22,3.07-.4.31-.62.88-2.59.32-2.93-.57-.34-3.41-1.22-4.68.26Z"/>
  <path class="cls-2" d="M6.61,5.99c-.54.01-1.02-.02-1.33-.1-.7-.17-1.78-3.24-1.5-3.53.44-.47,1.73-.8,2.69-.82.69-.02,2.07.12,2.74.78.29.29-.21,2.61-.75,3.29-.28.36-1.84.38-1.84.38ZM4.4,2.68c-.05.27.47,2.71,1,2.89.52.18,2.37.07,2.72-.16.35-.23.57-2.42.46-2.7-.34-.35-1.12-.55-2.09-.52-.99.02-1.82.27-2.08.5Z"/>
  <path class="cls-2" d="M4.44,1.96s-1.18.41-1.5.78c0,0,.08.53.26.59.18.07.82-.18.82-.18l.42-1.19Z"/>
  <path class="cls-3" d="M14.46,3.4s-1,2.51-1.51,2.59c-.51.08-2.34-.16-2.51-.75-.17-.59-.38-2.44.15-2.67.52-.23,3.03-.65,3.88.83Z"/>
  <path class="cls-2" d="M10.35,5.5c-.36-.68-.45-2.82-.17-3.04.65-.51,1.82-.45,2.4-.35.79.14,1.83.61,2.14,1.08.19.3-1.14,2.91-1.75,2.97-.27.03-.68,0-1.13-.08,0,0-1.3-.22-1.49-.58ZM12.48,2.67c-.81-.15-1.49-.07-1.83.2-.13.24-.25,2.23,0,2.48.26.25,1.79.58,2.25.49.46-.09,1.24-2.21,1.24-2.46-.18-.24-.84-.56-1.67-.71Z"/>
  <path class="cls-2" d="M14.22,2.74s.93.51,1.15.89c0,0-.14.46-.3.5-.16.04-.66-.27-.66-.27l-.18-1.12Z"/>
  <path class="cls-2" d="M8.75,4.63s.75-.75,1.58.1l-.08-.91s-.53-.66-1.38,0l-.12.81Z"/>
</svg>