<?xml version="1.0" encoding="UTF-8"?>
<svg id="Layer_1" data-name="Layer 1" xmlns="http://www.w3.org/2000/svg" viewBox="0 0 1689.63 327.24">
  <defs>
    <style>
      .cls-1 {
        fill: #ef3b3b;
      }

      .cls-1, .cls-2, .cls-3 {
        stroke-width: 0px;
      }

      .cls-2 {
        fill: #14223e;
      }

      .cls-3 {
        fill: #fff;
      }
    </style>
  </defs>
  <g>
    <path class="cls-1" d="M131.39,4.4C110.65,1.81,95.16.04,92.88,0c-7.66-.13-66.81,18.92-69.53,22.49-2.63,15.83,4.53,129.77,13.09,136.22,8.56,6.45,64.76,5.31,76.23,4.23-.09,1.33-.19,2.76-.29,4.26-13.05,2.53-53.14,11.2-65.47,24.16-8.44,8.88,50.26,36.77,65.47,41.49.22.07.44.09.65.09.45,2.58.99,4.9,1.63,6.87.85,2.61,2.56,4.99,4.9,7.15-3.69,10.1-15.49,35.6-27.98,54.98-20.95,1.41-32.82,7.96-35.63,10.67-3.11,3-5.53,14.64-5.53,14.64h80.16s2.25-10.6,0-14.75c0,0-2.77-4.6-11.52-7.8,3.13-8.8,11.17-32.79,12.36-50.67,13.63,5.49,32.77,7.26,47.91,3.95,5.73,37.62-10.58,69.27-10.58,69.27h86.44c-.35-3.11-6.22-18.67-10.72-22.47-4.49-3.8-43.68,1.73-43.68,1.73.93-10.63-5.38-42.08-7.82-53.7,4.22-2.57,7.44-5.9,9.18-10.07,2.34-5.63,2.83-12.88,2.15-20.8,8.83-7.76,33.54-30.59,28.41-38.86-5.15-8.3-33.21-17.39-45.39-20.01-1.78-4.18-3.06-6.94-3.41-7.68,32.73-3.86,62.25-8,65.67-10.44,7.71-5.48,17.46-113.12,11.89-120.37-2.43-3.17-74.41-13.13-123.6-19.35M215.44,185.84c1.83,2.09-9.91,8.96-15.71,12.17-2.19-7.99-4.85-15.73-7.36-22.4,8,3.03,21.39,8.3,23.07,10.22ZM79.22,193.1s13.12-8.16,32.49-13.35c-.34,7.44-.58,15.62-.57,23.63-22.97-1.85-31.93-10.28-31.93-10.28Z"/>
    <path class="cls-2" d="M87.01,71.67c-16.6.73-76.41,20.43-82.98,27.52-6.57,7.09-3.8,21.19-.86,22.58,1.84.86,14.43-4.09,16.25-5.6,1.82-1.51,3.64-7.29,7.09-11.1,11.06-6.39,52.2-21.09,63.87-22.82,11.67-1.73,13.23-11.31-3.37-10.58Z"/>
    <path class="cls-3" d="M69.55,54.04s14.62,59.29,26.46,62.8c11.85,3.51,56.48,4.47,62.74-8.13,6.26-12.61,18.05-53.02,6.46-59.99-11.59-6.97-69.79-24.89-95.67,5.32Z"/>
    <path class="cls-2" d="M122.15,122.55c-11,.27-20.92-.44-27.22-1.96-14.39-3.47-36.35-66.2-30.67-72.25,8.99-9.57,35.47-16.33,54.97-16.81,14.18-.35,42.43,2.5,55.96,15.98,5.88,5.85-4.38,53.33-15.39,67.26-5.75,7.27-37.65,7.79-37.65,7.79ZM77.07,54.72c-1.06,5.44,9.68,55.43,20.37,59.02,10.69,3.59,48.44,1.44,55.55-3.31,7.11-4.75,11.71-49.47,9.4-55.21-7.01-7.2-22.97-11.2-42.83-10.7-20.35.51-37.2,5.49-42.48,10.2Z"/>
    <path class="cls-2" d="M77.74,40.01s-24.14,8.29-30.64,15.85c0,0,1.71,10.79,5.36,12.15,3.65,1.35,16.71-3.67,16.71-3.67l8.57-24.33Z"/>
    <path class="cls-3" d="M282.78,69.57s-20.54,51.27-30.96,52.9c-10.41,1.63-47.92-3.22-51.39-15.32-3.47-12.1-7.68-49.82,2.99-54.59,10.68-4.77,61.92-13.38,79.36,17.01Z"/>
    <path class="cls-2" d="M198.71,112.44c-7.27-13.89-9.2-57.75-3.47-62.25,13.22-10.35,37.27-9.29,49.09-7.16,16.26,2.93,37.48,12.38,43.67,22.1,3.91,6.15-23.27,59.56-35.8,60.83-5.49.56-13.9-.07-23.07-1.72,0,0-26.63-4.54-30.43-11.8ZM242.24,54.64c-16.56-2.98-30.48-1.44-37.36,4.11-2.75,4.85-5.15,45.51.14,50.68,5.29,5.17,36.6,11.92,46.05,10.07,9.45-1.85,25.45-45.28,25.32-50.29-3.76-4.9-17.17-11.52-34.14-14.58Z"/>
    <path class="cls-2" d="M277.88,55.95s19.05,10.51,23.43,18.13c0,0-2.95,9.46-6.19,10.2-3.24.75-13.47-5.42-13.47-5.42l-3.77-22.91Z"/>
    <path class="cls-2" d="M166,94.67c.69,0,15.38-15.3,32.27,2.08l-1.63-18.65s-10.88-13.58-28.25,0l-2.39,16.57Z"/>
  </g>
  <g>
    <g>
      <path class="cls-2" d="M539.61,65.24c-6.1,20.41-12.2,40.53-16.26,59.78-13.65-.58-29.33-1.15-45.01-.29-13.65,47.14-30.78,101.46-43.56,148.31-17.42-1.44-38.04-.86-55.46.57,11.9-45.12,23.52-99.74,36.58-148.6-14.52-.86-31.36.29-45.88.86,3.19-18.97,7.55-39.09,15.39-58.35,46.75-3.74,103.08-5.17,154.18-2.3Z"/>
      <path class="cls-2" d="M723.13,166.99c-14.81,67.26-62.72,112.67-128.92,112.67-55.75,0-80.72-48.29-69.98-105.2,13.94-73.58,66.2-112.38,125.15-112.96,60.4-.58,87.11,45.13,73.75,105.49ZM582.89,178.49c-6.68,24.14,3.77,49.72,25.55,49.15,22.07-.86,45.59-25.01,52.27-52.31,6.39-26.44-3.19-48-27.01-48-25.55,0-44.42,25.01-50.81,51.16Z"/>
      <path class="cls-2" d="M809.67,274.78c-20.91-1.15-38.62-.86-56.33.58,7.26-14.95,16.26-33.92,26.13-54.04-3.77.58-11.61,0-15.1.58-4.07-22.71-11.91-94.28-14.52-154.35,19.17-2.59,45.3-2.01,63.88,0-2.9,29.03-2.32,64.67-.29,93.12,15.1-30.47,33.39-66.97,46.17-91.4,22.65-2.87,42.97-2.87,64.46-1.72-38.91,69.84-71.72,127.9-114.4,207.23Z"/>
    </g>
    <path class="cls-1" d="M901.56,273.42c30.49-66.4,63.01-138.25,97.56-204.36,27.58-4.31,51.97-4.31,77.53-3.45.58,69.85,2.32,142.28-.87,209.53-17.42-.57-36.88-1.15-54.3.86.87-11.78,1.16-24.43,1.45-36.5-16.55.58-32.23.58-51.97,2.01-5.52,10.35-10.74,21.27-17.13,31.9-18.29-1.44-36-1.44-52.26,0ZM1031.36,190.93c.29-23.85-1.16-50.3-2.61-74.73-14.81,24.14-28.16,50.3-41.23,74.16,14.81-.58,28.16-.86,43.84.57Z"/>
    <path class="cls-1" d="M1148.96,274.54c-18.58-1.72-38.62-2.01-56.91,0,15.68-68.7,31.65-132.79,55.46-204.65,20.91-4.02,43.56-3.45,64.46-2.87-24.1,71.57-42.39,136.24-63.01,207.52Z"/>
    <path class="cls-1" d="M1193.39,224.83c12.78,2.59,33.68,4.02,47.33,3.16,32.23-2.3,41.52-20.69,9.87-38.52-21.78-12.07-34.55-24.43-36.3-46.85-1.16-10.64,2.61-22.99,7.84-31.62,16.84-30.18,60.98-42.82,95.24-45.7,20.04-1.73,37.17-.86,57.2,1.15l-15.1,58.64c-13.36-3.16-42.1-3.74-55.17,2.59-10.45,5.17-20.33,14.95-20.04,27.31,0,13.51,26.43,21.56,35.42,28.17,12.49,8.91,28.17,18.11,25.55,35.64-.87,6.04-3.77,13.22-7.26,18.4-31.36,41.96-103.95,44.26-152.44,35.35l7.84-47.71Z"/>
    <path class="cls-1" d="M1491.89,220.24c-6.97,17.53-14.23,35.07-24.1,52.89-39.2,2.59-88.56,2.59-116.73,2.59,17.42-69.27,33.68-132.79,57.49-205.51,24.68-4.31,44.72-5.17,69.4-4.6-27.87,66.97-41.81,106.92-59.53,159.81,18.88,0,51.69-2.59,73.46-5.17Z"/>
    <path class="cls-1" d="M1651.3,156.08c-4.06,14.66-7.55,25.58-12.78,40.24-17.13-1.15-50.52-.86-67.36.29-2.9,10.06-6.1,19.26-9.29,29.32,18.87,0,53.14-1.15,74.62-3.74-6.97,17.82-14.23,34.2-23.52,51.74-38.33,2.3-89.14,1.44-116.44,1.44,16.84-67.83,31.65-132.5,55.17-203.79,40.07-6.04,98.14-6.61,137.92-5.46-7.55,18.68-15.39,38.8-22.65,57.77-19.16-.86-53.14,0-73.75,2.01-3.48,10.35-6.97,21.56-10.16,32.19,19.46-2.87,50.81-2.59,68.24-2.01Z"/>
  </g>
</svg>